<svg id="logo" xmlns="http://www.w3.org/2000/svg" width="158" height="38" viewBox="0 0 158 38">
  <g id="dewalt-logo" transform="translate(0 0)">
    <path id="Shape" d="M157.88,38H.027V35.021H157.88V38ZM96.745,33.467H85.527l9.491-29h12.067l9.248,29H105.587l-1.1-4.414H97.748l-1,4.414Zm4.416-19.308h0L99.246,22.6h3.744l-1.828-8.443ZM64.012,33.467H54.059l-8.014-29H56.768L59.7,18.627,62.758,4.469h9.49L75.5,18.627l3-14.158H89.226l-8.235,29h-10.2L67.36,19.318,64.012,33.466Zm87.455,0h-11V12.407h-6.474v-8.2h23.97v8.2h-6.5V33.465Zm-13.983,0H117.512V4.207h10.983V24.826h8.989v8.64Zm-91.253,0H30.239V10.677H46.231v5.969h-7.74v2.475h6.738v5.968H38.491v2.475h7.74v5.9Zm-32.645,0H0v-29H13.638c4.218,0,7.767,1.2,10.264,3.458a11.954,11.954,0,0,1,3.087,4.526,17.889,17.889,0,0,1,1.128,6.573,17.653,17.653,0,0,1-1.1,6.44,11.9,11.9,0,0,1-3.045,4.5C21.467,32.256,17.876,33.466,13.586,33.466ZM10.393,12.8V24.782h.862a5.965,5.965,0,0,0,4.169-1.273C16.485,22.546,17,21.049,17,18.932c0-2.305-.512-3.9-1.565-4.879a5.817,5.817,0,0,0-4.159-1.25ZM155.379,33.255a2.376,2.376,0,1,1,2.414-2.382A2.38,2.38,0,0,1,155.379,33.255Zm0-4.355a1.98,1.98,0,1,0,1.933,1.973A1.916,1.916,0,0,0,155.379,28.9Zm-.466,3.157h-.457V29.614h1.052c.613,0,.994.279.994.728a.734.734,0,0,1-.694.8l.612.91-.595,0-.521-.875h-.39v.875Zm0-2.069v.784h.563a1.08,1.08,0,0,0,.43-.053.343.343,0,0,0,.171-.352c0-.35-.312-.379-.632-.379ZM158,2.978H.027V0H158V2.977Z"/>
  </g>
</svg>
